<svg width="34" height="34" viewBox="0 0 34 34" fill="none" xmlns="http://www.w3.org/2000/svg">
<path d="M33.011 13.9102H17V20.4862H26.149C25.9598 21.5263 25.5617 22.5172 24.9787 23.3992C24.3956 24.2811 23.6399 25.0356 22.757 25.6172V29.8822H28.251C29.9247 28.2702 31.2409 26.3244 32.1141 24.1709C32.9874 22.0175 33.3982 19.7046 33.32 17.3822C33.3207 16.2179 33.2173 15.056 33.011 13.9102V13.9102Z" fill="#4285F4"/>
<path d="M28.2511 29.8815L22.7571 25.6165C21.043 26.7196 19.038 27.2848 17.0001 27.2395C14.8807 27.2131 12.8229 26.5226 11.1165 25.2652C9.41016 24.0079 8.14112 22.247 7.48811 20.2305H1.80811V24.6305C3.22224 27.4476 5.39202 29.8159 8.07489 31.4706C10.7578 33.1253 13.848 34.0012 17.0001 34.0005C21.1385 34.1127 25.1634 32.6392 28.2511 29.8815Z" fill="#34A853"/>
<path d="M6.95521 17.0022C6.95761 15.9022 7.13759 14.8098 7.48821 13.7672V9.36719H1.80821C0.619186 11.7365 0 14.3508 0 17.0017C0 19.6526 0.619186 22.2669 1.80821 24.6362L7.48821 20.2362C7.1377 19.1939 6.95772 18.1018 6.95521 17.0022Z" fill="#FBBC05"/>
<path d="M23.4981 9.30114L28.3741 4.42514C25.2965 1.53666 21.2206 -0.0487263 17.0001 0.00114175C13.8485 -9.42068e-05 10.7586 0.875092 8.07583 2.5289C5.39301 4.1827 3.22293 6.54996 1.80811 9.36614L7.48811 13.7661C8.14112 11.7496 9.41016 9.98876 11.1165 8.7314C12.8229 7.47404 14.8807 6.78355 17.0001 6.75714C19.4165 6.71717 21.7512 7.63123 23.4981 9.30114Z" fill="#EA4335"/>
</svg>
