<svg width="22" height="22" viewBox="0 0 22 22" fill="none" xmlns="http://www.w3.org/2000/svg">
<path d="M12.1004 2.25547L19.1004 7.50547C19.3488 7.69176 19.5504 7.93333 19.6892 8.21104C19.8281 8.48875 19.9004 8.79498 19.9004 9.10547V18.6055C19.9004 19.1359 19.6897 19.6446 19.3146 20.0197C18.9395 20.3948 18.4308 20.6055 17.9004 20.6055H3.90039C3.36996 20.6055 2.86125 20.3948 2.48618 20.0197C2.1111 19.6446 1.90039 19.1359 1.90039 18.6055V9.10547C1.90039 8.79498 1.97268 8.48875 2.11154 8.21104C2.25039 7.93333 2.452 7.69176 2.70039 7.50547L9.70039 2.25547C10.0466 1.99582 10.4677 1.85547 10.9004 1.85547C11.3331 1.85547 11.7542 1.99582 12.1004 2.25547Z" fill="#B8B8D2"/>
</svg>
