<svg width="19" height="15" viewBox="0 0 19 15" fill="none" xmlns="http://www.w3.org/2000/svg">
<path d="M16.667 15H1.667C1.22505 14.9995 0.801346 14.8237 0.488838 14.5112C0.176329 14.1987 0.000529286 13.775 0 13.333V1.667C0.000529286 1.22505 0.176329 0.801346 0.488838 0.488838C0.801346 0.176329 1.22505 0.000529286 1.667 0L16.667 0C17.1089 0.000529731 17.5325 0.176362 17.8448 0.488899C18.1572 0.801436 18.3327 1.22514 18.333 1.667V13.333C18.3327 13.7749 18.1572 14.1986 17.8448 14.5111C17.5325 14.8236 17.1089 14.9995 16.667 15ZM10.416 10C10.1949 10 9.98294 10.0878 9.82663 10.2441C9.67031 10.4004 9.5825 10.6124 9.5825 10.8335C9.5825 11.0546 9.67031 11.2666 9.82663 11.4229C9.98294 11.5792 10.1949 11.667 10.416 11.667H14.166C14.3871 11.667 14.5991 11.5792 14.7554 11.4229C14.9117 11.2666 14.9995 11.0546 14.9995 10.8335C14.9995 10.6124 14.9117 10.4004 14.7554 10.2441C14.5991 10.0878 14.3871 10 14.166 10H10.416ZM1.667 3.334V5H16.667V3.334H1.667Z" fill="#FF6905"/>
</svg>
