<svg width="19" height="19" viewBox="0 0 19 19" fill="none" xmlns="http://www.w3.org/2000/svg">
<path d="M9.167 18.333H0.833C0.612156 18.3327 0.400433 18.2449 0.244272 18.0887C0.0881119 17.9326 0.000264643 17.7208 0 17.5L0 9.167C0 7.35394 0.537635 5.5816 1.54492 4.07409C2.5522 2.56659 3.98389 1.39163 5.65894 0.6978C7.33399 0.00397193 9.17717 -0.177565 10.9554 0.176145C12.7336 0.529856 14.367 1.40293 15.649 2.68496C16.9311 3.96698 17.8041 5.60039 18.1579 7.37861C18.5116 9.15683 18.33 11 17.6362 12.6751C16.9424 14.3501 15.7674 15.7818 14.2599 16.7891C12.7524 17.7964 10.9801 18.334 9.167 18.334V18.333ZM5 12.5C4.77894 12.5 4.56694 12.5878 4.41063 12.7441C4.25431 12.9004 4.1665 13.1124 4.1665 13.3335C4.1665 13.5546 4.25431 13.7666 4.41063 13.9229C4.56694 14.0792 4.77894 14.167 5 14.167H9.167C9.38806 14.167 9.60006 14.0792 9.75637 13.9229C9.91269 13.7666 10.0005 13.5546 10.0005 13.3335C10.0005 13.1124 9.91269 12.9004 9.75637 12.7441C9.60006 12.5878 9.38806 12.5 9.167 12.5H5ZM5 9.167C4.77894 9.167 4.56694 9.25482 4.41063 9.41113C4.25431 9.56744 4.1665 9.77945 4.1665 10.0005C4.1665 10.2216 4.25431 10.4336 4.41063 10.5899C4.56694 10.7462 4.77894 10.834 5 10.834H12.5C12.7211 10.834 12.9331 10.7462 13.0894 10.5899C13.2457 10.4336 13.3335 10.2216 13.3335 10.0005C13.3335 9.77945 13.2457 9.56744 13.0894 9.41113C12.9331 9.25482 12.7211 9.167 12.5 9.167H5ZM5 5.833C4.77894 5.833 4.56694 5.92082 4.41063 6.07713C4.25431 6.23344 4.1665 6.44545 4.1665 6.6665C4.1665 6.88756 4.25431 7.09957 4.41063 7.25588C4.56694 7.41219 4.77894 7.5 5 7.5H12.5C12.7211 7.5 12.9331 7.41219 13.0894 7.25588C13.2457 7.09957 13.3335 6.88756 13.3335 6.6665C13.3335 6.44545 13.2457 6.23344 13.0894 6.07713C12.9331 5.92082 12.7211 5.833 12.5 5.833H5Z" fill="#3D5CFF"/>
</svg>
