<svg width="18" height="18" viewBox="0 0 18 18" fill="none" xmlns="http://www.w3.org/2000/svg">
<path d="M16.5455 17.3785C16.436 17.3789 16.3274 17.3575 16.2261 17.3156C16.1248 17.2737 16.0329 17.2122 15.9555 17.1345L12.8945 14.0735C11.3179 15.3482 9.31235 15.9695 7.29124 15.8092C5.27012 15.649 3.38751 14.7194 2.03146 13.2122C0.675418 11.705 -0.0507107 9.73497 0.00275625 7.70822C0.0562232 5.68147 0.88521 3.75247 2.31884 2.31884C3.75247 0.88521 5.68147 0.0562232 7.70822 0.00275625C9.73497 -0.0507107 11.705 0.675418 13.2122 2.03146C14.7194 3.38751 15.649 5.27012 15.8092 7.29124C15.9695 9.31235 15.3482 11.3179 14.0735 12.8945L17.1345 15.9555C17.2514 16.072 17.331 16.2205 17.3633 16.3822C17.3957 16.544 17.3793 16.7117 17.3162 16.8641C17.2531 17.0165 17.1462 17.1468 17.009 17.2384C16.8718 17.3299 16.7105 17.3787 16.5455 17.3785ZM7.91654 1.66754C6.68041 1.66754 5.47204 2.0341 4.44423 2.72086C3.41642 3.40762 2.61534 4.38373 2.1423 5.52577C1.66925 6.66781 1.54548 7.92448 1.78663 9.13686C2.02779 10.3492 2.62305 11.4629 3.49713 12.337C4.3712 13.211 5.48485 13.8063 6.69723 14.0475C7.90961 14.2886 9.16628 14.1648 10.3083 13.6918C11.4504 13.2187 12.4265 12.4177 13.1132 11.3899C13.8 10.362 14.1665 9.15368 14.1665 7.91754C14.1647 6.26051 13.5056 4.67187 12.3339 3.50017C11.1622 2.32847 9.57358 1.6694 7.91654 1.66754Z" fill="#3D5CFF"/>
</svg>
