<svg width="141" height="140" viewBox="0 0 141 140" fill="none" xmlns="http://www.w3.org/2000/svg">
<path d="M71.001 34.9785H71C52.4516 34.9785 37.415 50.015 37.415 68.5635V68.5645C37.415 87.113 52.4516 102.15 71 102.15H71.001C89.5495 102.15 104.586 87.113 104.586 68.5645V68.5635C104.586 50.015 89.5495 34.9785 71.001 34.9785Z" fill="#3D5CFF"/>
<path d="M56.2559 68.852L65.9509 78.547L85.7439 58.752" stroke="white" stroke-width="5" stroke-linecap="round" stroke-linejoin="round"/>
<path d="M105.097 107.24C107.971 107.906 110.535 109.528 112.368 111.84C113.778 114.33 114.644 117.091 114.91 119.94" stroke="#BAE0DB" stroke-width="2" stroke-linecap="round" stroke-linejoin="round"/>
<path d="M31.979 84.3425C29.862 86.7795 24.321 91.1535 19.087 89.1525C12.545 86.6525 12.737 82.8025 14.854 81.2635C16.971 79.7245 19.854 82.2255 20.434 84.3425C21.014 86.4595 20.049 93.5785 14.854 96.2725C9.659 98.9665 2.732 97.6195 1 96.2725" stroke="#EFE0FF" stroke-width="2" stroke-linecap="round" stroke-linejoin="round"/>
<path d="M115.391 16.2274C112.891 15.9064 107.656 17.3814 106.732 25.8484C105.808 34.3154 98.3947 36.0464 94.8027 35.8534" stroke="#3D5CFF" stroke-width="2" stroke-linecap="round" stroke-linejoin="round"/>
<path d="M21.1082 55.7262C23.6587 55.7262 25.7262 53.6587 25.7262 51.1082C25.7262 48.5578 23.6587 46.4902 21.1082 46.4902C18.5578 46.4902 16.4902 48.5578 16.4902 51.1082C16.4902 53.6587 18.5578 55.7262 21.1082 55.7262Z" fill="#F99A3D"/>
<path d="M49.0316 18.7292C51.1568 18.7292 52.8796 17.0064 52.8796 14.8812C52.8796 12.756 51.1568 11.0332 49.0316 11.0332C46.9064 11.0332 45.1836 12.756 45.1836 14.8812C45.1836 17.0064 46.9064 18.7292 49.0316 18.7292Z" fill="#FFE7EE"/>
<path d="M60.7687 24.4768C62.0367 24.4768 63.0647 23.4488 63.0647 22.1808C63.0647 20.9127 62.0367 19.8848 60.7687 19.8848C59.5006 19.8848 58.4727 20.9127 58.4727 22.1808C58.4727 23.4488 59.5006 24.4768 60.7687 24.4768Z" fill="#FFE7EE"/>
<path d="M122.126 69.8951C124.411 69.8951 126.263 68.0429 126.263 65.7581C126.263 63.4733 124.411 61.6211 122.126 61.6211C119.841 61.6211 117.989 63.4733 117.989 65.7581C117.989 68.0429 119.841 69.8951 122.126 69.8951Z" fill="#EFE0FF"/>
<path d="M36.1155 116.844C38.4003 116.844 40.2525 114.992 40.2525 112.707C40.2525 110.423 38.4003 108.57 36.1155 108.57C33.8307 108.57 31.9785 110.423 31.9785 112.707C31.9785 114.992 33.8307 116.844 36.1155 116.844Z" fill="#FFE7EE"/>
<path d="M87.6829 128.967C89.9677 128.967 91.8199 127.115 91.8199 124.83C91.8199 122.546 89.9677 120.693 87.6829 120.693C85.3981 120.693 83.5459 122.546 83.5459 124.83C83.5459 127.115 85.3981 128.967 87.6829 128.967Z" fill="#F9D2DD"/>
<path d="M74.8868 122.988C76.1549 122.988 77.1828 121.961 77.1828 120.692C77.1828 119.424 76.1549 118.396 74.8868 118.396C73.6188 118.396 72.5908 119.424 72.5908 120.692C72.5908 121.961 73.6188 122.988 74.8868 122.988Z" fill="#3D5CFF"/>
</svg>
